<svg xmlns="http://www.w3.org/2000/svg" width="1224.29" height="862.532" viewBox="0 0 1224.29 862.532">
  <g id="Group_143" data-name="Group 143" transform="translate(-13.677 -27.762)">
    <g id="Group_22" data-name="Group 22" opacity="0.9">
      <path id="Path_36" data-name="Path 36" d="M641.368,302.923l.187-33.087a24.386,24.386,0,1,1,22.505.127l-.187,33.087Z" fill="#6c63ff"/>
      <path id="Path_37" data-name="Path 37" d="M641.368,302.923l.187-33.087a24.386,24.386,0,1,1,22.505.127l-.187,33.087Z" fill="none" stroke="#000" stroke-width="2.64"/>
      <g id="Group_7" data-name="Group 7" opacity="0.31">
        <path id="Path_38" data-name="Path 38" d="M658.422,235.281a5.419,5.419,0,1,1-5.45,5.389A5.422,5.422,0,0,1,658.422,235.281Z" fill="#fff"/>
      </g>
      <path id="Path_39" data-name="Path 39" d="M639.747,590.123l-.187,33.088a24.387,24.387,0,1,0,22.505.127l.187-33.088Z" fill="#6c63ff"/>
      <path id="Path_40" data-name="Path 40" d="M639.747,590.123l-.187,33.088a24.387,24.387,0,1,0,22.505.127l.187-33.088Z" fill="none" stroke="#000" stroke-width="2.64"/>
      <g id="Group_8" data-name="Group 8" opacity="0.31">
        <path id="Path_41" data-name="Path 41" d="M656.1,647.115a5.419,5.419,0,1,1-5.449,5.388A5.423,5.423,0,0,1,656.1,647.115Z" fill="#fff"/>
      </g>
      <g id="Group_9" data-name="Group 9" opacity="0.18">
        <path id="Path_42" data-name="Path 42" d="M804.608,301.928a8.745,8.745,0,1,1,10.745-6.123A8.75,8.75,0,0,1,804.608,301.928Z" fill="#fff"/>
      </g>
      <g id="Group_10" data-name="Group 10" opacity="0.18">
        <path id="Path_43" data-name="Path 43" d="M493.514,283.278a8.745,8.745,0,1,1-6.244,10.675A8.748,8.748,0,0,1,493.514,283.278Z" fill="#fff"/>
      </g>
      <path id="Path_44" data-name="Path 44" d="M795.474,436.145l33.087.187a24.387,24.387,0,1,1-.127,22.5l-33.087-.187Z" fill="#6c63ff"/>
      <path id="Path_45" data-name="Path 45" d="M795.474,436.145l33.087.187a24.387,24.387,0,1,1-.127,22.5l-33.087-.187Z" fill="none" stroke="#000" stroke-width="2.64"/>
      <g id="Group_11" data-name="Group 11" opacity="0.31">
        <path id="Path_46" data-name="Path 46" d="M863.115,453.2a5.419,5.419,0,1,1-5.388-5.449A5.423,5.423,0,0,1,863.115,453.2Z" fill="#fff"/>
      </g>
      <path id="Path_47" data-name="Path 47" d="M508.274,434.524l-33.088-.187a24.387,24.387,0,1,0-.127,22.505l33.088.186Z" fill="#6c63ff"/>
      <path id="Path_48" data-name="Path 48" d="M508.274,434.524l-33.088-.187a24.387,24.387,0,1,0-.127,22.505l33.088.186Z" fill="none" stroke="#000" stroke-width="2.64"/>
      <g id="Group_12" data-name="Group 12" opacity="0.31">
        <path id="Path_49" data-name="Path 49" d="M451.281,450.874a5.419,5.419,0,1,1-5.388-5.45A5.421,5.421,0,0,1,451.281,450.874Z" fill="#fff"/>
      </g>
      <path id="Path_50" data-name="Path 50" d="M760.78,540.789l23.264,23.529a24.386,24.386,0,1,1-16,15.823l-23.264-23.528Z" fill="#6c63ff"/>
      <path id="Path_51" data-name="Path 51" d="M760.78,540.789l23.264,23.529a24.386,24.386,0,1,1-16,15.823l-23.264-23.528Z" fill="none" stroke="#000" stroke-width="2.64"/>
      <g id="Group_13" data-name="Group 13" opacity="0.31">
        <path id="Path_52" data-name="Path 52" d="M796.551,600.676a5.419,5.419,0,1,1,.043-7.663A5.422,5.422,0,0,1,796.551,600.676Z" fill="#fff"/>
      </g>
      <path id="Path_53" data-name="Path 53" d="M558.843,336.561l-23.264-23.529a24.387,24.387,0,1,0-16,15.823l23.264,23.529Z" fill="#6c63ff"/>
      <path id="Path_54" data-name="Path 54" d="M558.843,336.561l-23.264-23.529a24.387,24.387,0,1,0-16,15.823l23.264,23.529Z" fill="none" stroke="#000" stroke-width="2.64"/>
      <g id="Group_14" data-name="Group 14" opacity="0.31">
        <path id="Path_55" data-name="Path 55" d="M506.984,307.823a5.419,5.419,0,1,1,.044-7.664A5.421,5.421,0,0,1,506.984,307.823Z" fill="#fff"/>
      </g>
      <path id="Path_56" data-name="Path 56" d="M746.013,337.617l23.528-23.264a24.387,24.387,0,1,1,15.824,16L761.836,353.62Z" fill="#6c63ff"/>
      <path id="Path_57" data-name="Path 57" d="M746.013,337.617l23.528-23.264a24.387,24.387,0,1,1,15.824,16L761.836,353.62Z" fill="none" stroke="#000" stroke-width="2.64"/>
      <g id="Group_15" data-name="Group 15" opacity="0.31">
        <path id="Path_58" data-name="Path 58" d="M805.9,301.846a5.419,5.419,0,1,1-7.664-.043A5.423,5.423,0,0,1,805.9,301.846Z" fill="#fff"/>
      </g>
      <path id="Path_59" data-name="Path 59" d="M541.784,539.553l-23.528,23.265a24.386,24.386,0,1,0,15.823,16l23.528-23.265Z" fill="#6c63ff"/>
      <path id="Path_60" data-name="Path 60" d="M541.784,539.553l-23.528,23.265a24.386,24.386,0,1,0,15.823,16l23.528-23.265Z" fill="none" stroke="#000" stroke-width="2.64"/>
      <g id="Group_16" data-name="Group 16" opacity="0.31">
        <path id="Path_61" data-name="Path 61" d="M513.046,591.412a5.419,5.419,0,1,1-7.663-.043A5.422,5.422,0,0,1,513.046,591.412Z" fill="#fff"/>
      </g>
      <path id="Path_62" data-name="Path 62" d="M655.376,294.874c85.234.481,154.05,69.468,153.573,153.954s-70.067,152.693-155.3,152.212S499.6,531.571,500.074,447.085,570.142,294.393,655.376,294.874Z" fill="#6c63ff"/>
      <path id="Path_63" data-name="Path 63" d="M655.376,294.874c85.234.481,154.05,69.468,153.573,153.954s-70.067,152.693-155.3,152.212S499.6,531.571,500.074,447.085,570.142,294.393,655.376,294.874Z" fill="none" stroke="#000" stroke-width="2.64"/>
      <g id="Group_17" data-name="Group 17" opacity="0.1">
        <path id="Path_64" data-name="Path 64" d="M641.783,302.926c74.767.422,135.139,59.648,134.73,132.172S715.066,566.162,640.3,565.74,505.16,506.092,505.57,433.568,567.016,302.5,641.783,302.926Z" fill="#fff"/>
      </g>
      <g id="Group_18" data-name="Group 18" opacity="0.3">
        <path id="Path_65" data-name="Path 65" d="M732.3,347.965c9.727.055,17.589,4.1,17.534,13.822a17.611,17.611,0,1,1-35.222-.2C714.664,351.862,722.571,347.91,732.3,347.965Z" fill="#fff"/>
      </g>
      <g id="Group_19" data-name="Group 19" opacity="0.17">
        <path id="Path_66" data-name="Path 66" d="M561.442,375.629c6.733.038,20.233,10.372,20.2,17.105s-15.842,21.5-22.575,21.465-15.47-13.217-15.432-19.95S554.709,375.591,561.442,375.629Z" fill="#fff"/>
      </g>
      <g id="Group_20" data-name="Group 20" opacity="0.3">
        <path id="Path_67" data-name="Path 67" d="M625.373,329.928a8.129,8.129,0,1,1-8.174,8.083A8.133,8.133,0,0,1,625.373,329.928Z" fill="#fff"/>
      </g>
      <g id="Group_21" data-name="Group 21" opacity="0.15">
        <path id="Path_68" data-name="Path 68" d="M542.017,456.8c6.733.038,23.693,9.457,23.655,16.19s-17.06,8.233-23.793,8.2a12.193,12.193,0,0,1,.138-24.385Z" fill="#fff"/>
      </g>
    </g>
    <g id="Group_37" data-name="Group 37" opacity="0.5">
      <path id="Path_69" data-name="Path 69" d="M1082.5,857.333l5.89,2.117a4.616,4.616,0,1,1-1.44,4.012l-5.89-2.118Z" fill="#6c63ff"/>
      <path id="Path_70" data-name="Path 70" d="M1082.5,857.333l5.89,2.117a4.616,4.616,0,1,1-1.44,4.012l-5.89-2.118Z" fill="none" stroke="#000" stroke-width="0.5"/>
      <g id="Group_23" data-name="Group 23" opacity="0.31">
        <path id="Path_71" data-name="Path 71" d="M1093.5,864.639a1.026,1.026,0,1,1-.61-1.313A1.024,1.024,0,0,1,1093.5,864.639Z" fill="#fff"/>
      </g>
      <path id="Path_72" data-name="Path 72" d="M1031.3,838.955l-5.9-2.117a4.54,4.54,0,0,0-2.97-3.71,4.619,4.619,0,0,0-3.12,8.694,4.549,4.549,0,0,0,4.65-.972l5.9,2.117Z" fill="#6c63ff"/>
      <path id="Path_73" data-name="Path 73" d="M1031.3,838.955l-5.9-2.117a4.54,4.54,0,0,0-2.97-3.71,4.619,4.619,0,0,0-3.12,8.694,4.549,4.549,0,0,0,4.65-.972l5.9,2.117Z" fill="none" stroke="#000" stroke-width="0.5"/>
      <g id="Group_24" data-name="Group 24" opacity="0.31">
        <path id="Path_74" data-name="Path 74" d="M1020.09,838.286a1.025,1.025,0,1,1-.62-1.313A1.024,1.024,0,0,1,1020.09,838.286Z" fill="#fff"/>
      </g>
      <g id="Group_25" data-name="Group 25" opacity="0.18">
        <path id="Path_75" data-name="Path 75" d="M1072.39,886.553a1.66,1.66,0,1,1,.42,2.3A1.663,1.663,0,0,1,1072.39,886.553Z" fill="#fff"/>
      </g>
      <g id="Group_26" data-name="Group 26" opacity="0.18">
        <path id="Path_76" data-name="Path 76" d="M1095.32,832.161a1.656,1.656,0,1,1-1.52-1.787A1.663,1.663,0,0,1,1095.32,832.161Z" fill="#fff"/>
      </g>
      <path id="Path_77" data-name="Path 77" d="M1049,876.468l-2.12,5.9a4.618,4.618,0,1,1-4.01-1.44l2.11-5.9Z" fill="#6c63ff"/>
      <path id="Path_78" data-name="Path 78" d="M1049,876.468l-2.12,5.9a4.618,4.618,0,1,1-4.01-1.44l2.11-5.9Z" fill="none" stroke="#000" stroke-width="0.5"/>
      <g id="Group_27" data-name="Group 27" opacity="0.31">
        <path id="Path_79" data-name="Path 79" d="M1041.69,887.476a1.026,1.026,0,1,1,1.31-.619A1.032,1.032,0,0,1,1041.69,887.476Z" fill="#fff"/>
      </g>
      <path id="Path_80" data-name="Path 80" d="M1067.37,825.272l2.12-5.9a4.616,4.616,0,1,0-4.01-1.44l-2.12,5.9Z" fill="#6c63ff"/>
      <path id="Path_81" data-name="Path 81" d="M1067.37,825.272l2.12-5.9a4.616,4.616,0,1,0-4.01-1.44l-2.12,5.9Z" fill="none" stroke="#000" stroke-width="0.5"/>
      <g id="Group_28" data-name="Group 28" opacity="0.31">
        <path id="Path_82" data-name="Path 82" d="M1068.04,814.062a1.027,1.027,0,1,1,1.32-.619A1.03,1.03,0,0,1,1068.04,814.062Z" fill="#fff"/>
      </g>
      <path id="Path_83" data-name="Path 83" d="M1032.49,863.68l-5.67,2.674A4.619,4.619,0,1,1,1025,862.5l5.67-2.673Z" fill="#6c63ff"/>
      <path id="Path_84" data-name="Path 84" d="M1032.49,863.68l-5.67,2.674A4.619,4.619,0,1,1,1025,862.5l5.67-2.673Z" fill="none" stroke="#000" stroke-width="0.5"/>
      <g id="Group_29" data-name="Group 29" opacity="0.31">
        <path id="Path_85" data-name="Path 85" d="M1019.54,866.3a1.028,1.028,0,1,1,1.37.49A1.03,1.03,0,0,1,1019.54,866.3Z" fill="#fff"/>
      </g>
      <path id="Path_86" data-name="Path 86" d="M1081.69,840.474l5.66-2.673a4.626,4.626,0,1,0-1.81-3.855l-5.67,2.673Z" fill="#6c63ff"/>
      <path id="Path_87" data-name="Path 87" d="M1081.69,840.474l5.66-2.673a4.626,4.626,0,1,0-1.81-3.855l-5.67,2.673Z" fill="none" stroke="#000" stroke-width="0.5"/>
      <g id="Group_30" data-name="Group 30" opacity="0.31">
        <path id="Path_88" data-name="Path 88" d="M1090.09,833.021a1.023,1.023,0,1,1,1.85-.876,1.023,1.023,0,1,1-1.85.876Z" fill="#fff"/>
      </g>
      <path id="Path_89" data-name="Path 89" d="M1069.71,873.839l2.67,5.668a4.616,4.616,0,1,1-3.85,1.818l-2.68-5.668Z" fill="#6c63ff"/>
      <path id="Path_90" data-name="Path 90" d="M1069.71,873.839l2.67,5.668a4.616,4.616,0,1,1-3.85,1.818l-2.68-5.668Z" fill="none" stroke="#000" stroke-width="0.5"/>
      <g id="Group_31" data-name="Group 31" opacity="0.31">
        <path id="Path_91" data-name="Path 91" d="M1072.33,886.789a1.027,1.027,0,1,1,.49-1.367A1.029,1.029,0,0,1,1072.33,886.789Z" fill="#fff"/>
      </g>
      <path id="Path_92" data-name="Path 92" d="M1046.5,824.642l-2.67-5.667a4.616,4.616,0,1,0-3.86,1.818l2.68,5.668Z" fill="#6c63ff"/>
      <path id="Path_93" data-name="Path 93" d="M1046.5,824.642l-2.67-5.667a4.616,4.616,0,1,0-3.86,1.818l2.68,5.668Z" fill="none" stroke="#000" stroke-width="0.5"/>
      <g id="Group_32" data-name="Group 32" opacity="0.31">
        <path id="Path_94" data-name="Path 94" d="M1039.05,816.243a1.027,1.027,0,1,1,.49-1.366A1.034,1.034,0,0,1,1039.05,816.243Z" fill="#fff"/>
      </g>
      <path id="Path_95" data-name="Path 95" d="M1083.05,860.342a28.991,28.991,0,1,1-17.4-37.326A29.135,29.135,0,0,1,1083.05,860.342Z" fill="#6c63ff"/>
      <path id="Path_96" data-name="Path 96" d="M1083.05,860.342a28.991,28.991,0,1,1-17.4-37.326A29.135,29.135,0,0,1,1083.05,860.342Z" fill="none" stroke="#000" stroke-width="0.5"/>
      <g id="Group_33" data-name="Group 33" opacity="0.3">
        <path id="Path_97" data-name="Path 97" d="M1068.72,870.737c-.62,1.734-1.83,2.884-3.57,2.262a3.337,3.337,0,0,1,2.26-6.279C1069.14,867.342,1069.35,869,1068.72,870.737Z" fill="#fff"/>
      </g>
      <g id="Group_34" data-name="Group 34" opacity="0.17">
        <path id="Path_98" data-name="Path 98" d="M1074.54,838.478c-.43,1.2-3.12,2.96-4.32,2.529s-2.85-4.183-2.42-5.384,3.34-1.93,4.54-1.5S1074.97,837.277,1074.54,838.478Z" fill="#fff"/>
      </g>
      <g id="Group_35" data-name="Group 35" opacity="0.3">
        <path id="Path_99" data-name="Path 99" d="M1078.68,852.775a1.54,1.54,0,1,1-.93-1.969A1.542,1.542,0,0,1,1078.68,852.775Z" fill="#fff"/>
      </g>
      <g id="Group_36" data-name="Group 36" opacity="0.15">
        <path id="Path_100" data-name="Path 100" d="M1061.27,829.9c-.43,1.2-3.18,3.636-4.38,3.205s-.4-3.566.03-4.766a2.311,2.311,0,0,1,4.35,1.561Z" fill="#fff"/>
      </g>
    </g>
    <g id="Group_52" data-name="Group 52" opacity="0.5">
      <path id="Path_101" data-name="Path 101" d="M80.139,761.818l5.9,2.117a4.619,4.619,0,1,1-1.44,4.011l-5.9-2.117Z" fill="#6c63ff"/>
      <path id="Path_102" data-name="Path 102" d="M80.139,761.818l5.9,2.117a4.619,4.619,0,1,1-1.44,4.011l-5.9-2.117Z" fill="none" stroke="#000" stroke-width="0.5"/>
      <g id="Group_38" data-name="Group 38" opacity="0.31">
        <path id="Path_103" data-name="Path 103" d="M91.147,769.124a1.026,1.026,0,1,1-.619-1.313A1.027,1.027,0,0,1,91.147,769.124Z" fill="#fff"/>
      </g>
      <path id="Path_104" data-name="Path 104" d="M28.943,743.44l-5.9-2.117a4.619,4.619,0,1,0-1.44,4.011l5.9,2.118Z" fill="#6c63ff"/>
      <path id="Path_105" data-name="Path 105" d="M28.943,743.44l-5.9-2.117a4.619,4.619,0,1,0-1.44,4.011l5.9,2.118Z" fill="none" stroke="#000" stroke-width="0.5"/>
      <g id="Group_39" data-name="Group 39" opacity="0.31">
        <path id="Path_106" data-name="Path 106" d="M17.734,742.771a1.026,1.026,0,1,1-.619-1.313A1.027,1.027,0,0,1,17.734,742.771Z" fill="#fff"/>
      </g>
      <g id="Group_40" data-name="Group 40" opacity="0.18">
        <path id="Path_107" data-name="Path 107" d="M70.036,791.037a1.656,1.656,0,1,1,.417,2.3A1.657,1.657,0,0,1,70.036,791.037Z" fill="#fff"/>
      </g>
      <g id="Group_41" data-name="Group 41" opacity="0.18">
        <path id="Path_108" data-name="Path 108" d="M92.96,736.646a1.656,1.656,0,1,1-1.514-1.788A1.656,1.656,0,0,1,92.96,736.646Z" fill="#fff"/>
      </g>
      <path id="Path_109" data-name="Path 109" d="M46.638,780.953l-2.117,5.9a4.619,4.619,0,1,1-4.012-1.44l2.117-5.9Z" fill="#6c63ff"/>
      <path id="Path_110" data-name="Path 110" d="M46.638,780.953l-2.117,5.9a4.619,4.619,0,1,1-4.012-1.44l2.117-5.9Z" fill="none" stroke="#000" stroke-width="0.5"/>
      <g id="Group_42" data-name="Group 42" opacity="0.31">
        <path id="Path_111" data-name="Path 111" d="M39.332,791.961a1.026,1.026,0,1,1,1.313-.62A1.027,1.027,0,0,1,39.332,791.961Z" fill="#fff"/>
      </g>
      <path id="Path_112" data-name="Path 112" d="M65.016,729.756l2.117-5.9a4.618,4.618,0,1,0-4.012-1.44L61,728.316Z" fill="#6c63ff"/>
      <path id="Path_113" data-name="Path 113" d="M65.016,729.756l2.117-5.9a4.618,4.618,0,1,0-4.012-1.44L61,728.316Z" fill="none" stroke="#000" stroke-width="0.5"/>
      <g id="Group_43" data-name="Group 43" opacity="0.31">
        <path id="Path_114" data-name="Path 114" d="M65.685,718.547A1.026,1.026,0,1,1,67,717.928,1.027,1.027,0,0,1,65.685,718.547Z" fill="#fff"/>
      </g>
      <path id="Path_115" data-name="Path 115" d="M30.132,768.165l-5.668,2.674a4.619,4.619,0,1,1-1.818-3.855l5.668-2.674Z" fill="#6c63ff"/>
      <path id="Path_116" data-name="Path 116" d="M30.132,768.165l-5.668,2.674a4.619,4.619,0,1,1-1.818-3.855l5.668-2.674Z" fill="none" stroke="#000" stroke-width="0.5"/>
      <g id="Group_44" data-name="Group 44" opacity="0.31">
        <path id="Path_117" data-name="Path 117" d="M17.183,770.783a1.026,1.026,0,1,1,1.366.49A1.026,1.026,0,0,1,17.183,770.783Z" fill="#fff"/>
      </g>
      <path id="Path_118" data-name="Path 118" d="M79.329,744.959,85,742.285a4.618,4.618,0,1,0-1.818-3.855L77.51,741.1Z" fill="#6c63ff"/>
      <path id="Path_119" data-name="Path 119" d="M79.329,744.959,85,742.285a4.618,4.618,0,1,0-1.818-3.855L77.51,741.1Z" fill="none" stroke="#000" stroke-width="0.5"/>
      <g id="Group_45" data-name="Group 45" opacity="0.31">
        <path id="Path_120" data-name="Path 120" d="M87.728,737.506a1.026,1.026,0,1,1,1.366.49A1.027,1.027,0,0,1,87.728,737.506Z" fill="#fff"/>
      </g>
      <path id="Path_121" data-name="Path 121" d="M67.352,778.324l2.674,5.667a4.619,4.619,0,1,1-3.855,1.819L63.5,780.142Z" fill="#6c63ff"/>
      <path id="Path_122" data-name="Path 122" d="M67.352,778.324l2.674,5.667a4.619,4.619,0,1,1-3.855,1.819L63.5,780.142Z" fill="none" stroke="#000" stroke-width="0.5"/>
      <g id="Group_46" data-name="Group 46" opacity="0.31">
        <path id="Path_123" data-name="Path 123" d="M69.969,791.273a1.026,1.026,0,1,1,.49-1.366A1.027,1.027,0,0,1,69.969,791.273Z" fill="#fff"/>
      </g>
      <path id="Path_124" data-name="Path 124" d="M44.146,729.127l-2.674-5.668a4.618,4.618,0,1,0-3.855,1.819l2.674,5.667Z" fill="#6c63ff"/>
      <path id="Path_125" data-name="Path 125" d="M44.146,729.127l-2.674-5.668a4.618,4.618,0,1,0-3.855,1.819l2.674,5.667Z" fill="none" stroke="#000" stroke-width="0.5"/>
      <g id="Group_47" data-name="Group 47" opacity="0.31">
        <path id="Path_126" data-name="Path 126" d="M36.693,720.728a1.027,1.027,0,1,1,.49-1.366A1.027,1.027,0,0,1,36.693,720.728Z" fill="#fff"/>
      </g>
      <path id="Path_127" data-name="Path 127" d="M80.695,764.827A28.995,28.995,0,1,1,63.289,727.5,29.138,29.138,0,0,1,80.695,764.827Z" fill="#6c63ff"/>
      <path id="Path_128" data-name="Path 128" d="M80.695,764.827A28.995,28.995,0,1,1,63.289,727.5,29.138,29.138,0,0,1,80.695,764.827Z" fill="none" stroke="#000" stroke-width="0.5"/>
      <g id="Group_48" data-name="Group 48" opacity="0.3">
        <path id="Path_129" data-name="Path 129" d="M66.368,775.222c-.622,1.734-1.839,2.884-3.573,2.261a3.335,3.335,0,1,1,2.254-6.278C66.782,771.827,66.99,773.488,66.368,775.222Z" fill="#fff"/>
      </g>
      <g id="Group_49" data-name="Group 49" opacity="0.17">
        <path id="Path_130" data-name="Path 130" d="M72.187,742.962c-.431,1.2-3.127,2.961-4.327,2.53s-2.843-4.184-2.412-5.384,3.335-1.931,4.535-1.5S72.618,741.762,72.187,742.962Z" fill="#fff"/>
      </g>
      <g id="Group_50" data-name="Group 50" opacity="0.3">
        <path id="Path_131" data-name="Path 131" d="M76.323,757.26a1.539,1.539,0,1,1-.929-1.969A1.54,1.54,0,0,1,76.323,757.26Z" fill="#fff"/>
      </g>
      <g id="Group_51" data-name="Group 51" opacity="0.15">
        <path id="Path_132" data-name="Path 132" d="M58.911,734.38c-.431,1.2-3.181,3.637-4.382,3.206s-.4-3.566.035-4.766a2.309,2.309,0,0,1,4.347,1.56Z" fill="#fff"/>
      </g>
    </g>
    <g id="Group_67" data-name="Group 67" opacity="0.5">
      <path id="Path_133" data-name="Path 133" d="M95.139,400.818l5.9,2.117a4.618,4.618,0,1,1-1.44,4.011l-5.9-2.117Z" fill="#6c63ff"/>
      <path id="Path_134" data-name="Path 134" d="M95.139,400.818l5.9,2.117a4.618,4.618,0,1,1-1.44,4.011l-5.9-2.117Z" fill="none" stroke="#000" stroke-width="0.5"/>
      <g id="Group_53" data-name="Group 53" opacity="0.31">
        <path id="Path_135" data-name="Path 135" d="M106.147,408.124a1.026,1.026,0,1,1-.619-1.313A1.027,1.027,0,0,1,106.147,408.124Z" fill="#fff"/>
      </g>
      <path id="Path_136" data-name="Path 136" d="M43.943,382.44l-5.9-2.117a4.619,4.619,0,1,0-1.44,4.011l5.9,2.118Z" fill="#6c63ff"/>
      <path id="Path_137" data-name="Path 137" d="M43.943,382.44l-5.9-2.117a4.619,4.619,0,1,0-1.44,4.011l5.9,2.118Z" fill="none" stroke="#000" stroke-width="0.5"/>
      <g id="Group_54" data-name="Group 54" opacity="0.31">
        <path id="Path_138" data-name="Path 138" d="M32.734,381.771a1.026,1.026,0,1,1-.619-1.313A1.027,1.027,0,0,1,32.734,381.771Z" fill="#fff"/>
      </g>
      <g id="Group_55" data-name="Group 55" opacity="0.18">
        <path id="Path_139" data-name="Path 139" d="M85.036,430.037a1.656,1.656,0,1,1,.417,2.305A1.657,1.657,0,0,1,85.036,430.037Z" fill="#fff"/>
      </g>
      <g id="Group_56" data-name="Group 56" opacity="0.18">
        <path id="Path_140" data-name="Path 140" d="M107.96,375.646a1.656,1.656,0,1,1-1.513-1.788A1.655,1.655,0,0,1,107.96,375.646Z" fill="#fff"/>
      </g>
      <path id="Path_141" data-name="Path 141" d="M61.638,419.953l-2.117,5.9a4.619,4.619,0,1,1-4.012-1.44l2.117-5.9Z" fill="#6c63ff"/>
      <path id="Path_142" data-name="Path 142" d="M61.638,419.953l-2.117,5.9a4.619,4.619,0,1,1-4.012-1.44l2.117-5.9Z" fill="none" stroke="#000" stroke-width="0.5"/>
      <g id="Group_57" data-name="Group 57" opacity="0.31">
        <path id="Path_143" data-name="Path 143" d="M54.332,430.96a1.026,1.026,0,1,1,1.313-.619A1.026,1.026,0,0,1,54.332,430.96Z" fill="#fff"/>
      </g>
      <path id="Path_144" data-name="Path 144" d="M80.016,368.756l2.117-5.9a4.618,4.618,0,1,0-4.012-1.44L76,367.316Z" fill="#6c63ff"/>
      <path id="Path_145" data-name="Path 145" d="M80.016,368.756l2.117-5.9a4.618,4.618,0,1,0-4.012-1.44L76,367.316Z" fill="none" stroke="#000" stroke-width="0.5"/>
      <g id="Group_58" data-name="Group 58" opacity="0.31">
        <path id="Path_146" data-name="Path 146" d="M80.685,357.547A1.026,1.026,0,1,1,82,356.928,1.027,1.027,0,0,1,80.685,357.547Z" fill="#fff"/>
      </g>
      <path id="Path_147" data-name="Path 147" d="M45.132,407.165l-5.668,2.674a4.619,4.619,0,1,1-1.818-3.855l5.668-2.674Z" fill="#6c63ff"/>
      <path id="Path_148" data-name="Path 148" d="M45.132,407.165l-5.668,2.674a4.619,4.619,0,1,1-1.818-3.855l5.668-2.674Z" fill="none" stroke="#000" stroke-width="0.5"/>
      <g id="Group_59" data-name="Group 59" opacity="0.31">
        <path id="Path_149" data-name="Path 149" d="M32.182,409.783a1.026,1.026,0,1,1,1.366.49A1.026,1.026,0,0,1,32.182,409.783Z" fill="#fff"/>
      </g>
      <path id="Path_150" data-name="Path 150" d="M94.329,383.959,100,381.285a4.618,4.618,0,1,0-1.818-3.855L92.51,380.1Z" fill="#6c63ff"/>
      <path id="Path_151" data-name="Path 151" d="M94.329,383.959,100,381.285a4.618,4.618,0,1,0-1.818-3.855L92.51,380.1Z" fill="none" stroke="#000" stroke-width="0.5"/>
      <g id="Group_60" data-name="Group 60" opacity="0.31">
        <path id="Path_152" data-name="Path 152" d="M102.728,376.506a1.026,1.026,0,1,1,1.366.49A1.026,1.026,0,0,1,102.728,376.506Z" fill="#fff"/>
      </g>
      <path id="Path_153" data-name="Path 153" d="M82.352,417.324l2.674,5.667a4.619,4.619,0,1,1-3.855,1.819L78.5,419.142Z" fill="#6c63ff"/>
      <path id="Path_154" data-name="Path 154" d="M82.352,417.324l2.674,5.667a4.619,4.619,0,1,1-3.855,1.819L78.5,419.142Z" fill="none" stroke="#000" stroke-width="0.5"/>
      <g id="Group_61" data-name="Group 61" opacity="0.31">
        <path id="Path_155" data-name="Path 155" d="M84.969,430.273a1.026,1.026,0,1,1,.49-1.366A1.027,1.027,0,0,1,84.969,430.273Z" fill="#fff"/>
      </g>
      <path id="Path_156" data-name="Path 156" d="M59.146,368.127l-2.674-5.668a4.618,4.618,0,1,0-3.855,1.819l2.674,5.667Z" fill="#6c63ff"/>
      <path id="Path_157" data-name="Path 157" d="M59.146,368.127l-2.674-5.668a4.618,4.618,0,1,0-3.855,1.819l2.674,5.667Z" fill="none" stroke="#000" stroke-width="0.5"/>
      <g id="Group_62" data-name="Group 62" opacity="0.31">
        <path id="Path_158" data-name="Path 158" d="M51.693,359.728a1.027,1.027,0,1,1,.49-1.366A1.027,1.027,0,0,1,51.693,359.728Z" fill="#fff"/>
      </g>
      <path id="Path_159" data-name="Path 159" d="M95.695,403.827A28.995,28.995,0,1,1,78.289,366.5,29.137,29.137,0,0,1,95.695,403.827Z" fill="#6c63ff"/>
      <path id="Path_160" data-name="Path 160" d="M95.695,403.827A28.995,28.995,0,1,1,78.289,366.5,29.137,29.137,0,0,1,95.695,403.827Z" fill="none" stroke="#000" stroke-width="0.5"/>
      <g id="Group_63" data-name="Group 63" opacity="0.3">
        <path id="Path_161" data-name="Path 161" d="M81.368,414.222c-.622,1.734-1.839,2.884-3.573,2.261a3.335,3.335,0,1,1,2.254-6.278C81.782,410.827,81.99,412.488,81.368,414.222Z" fill="#fff"/>
      </g>
      <g id="Group_64" data-name="Group 64" opacity="0.17">
        <path id="Path_162" data-name="Path 162" d="M87.187,381.962c-.431,1.2-3.127,2.961-4.327,2.53s-2.843-4.184-2.412-5.384,3.335-1.931,4.535-1.5S87.618,380.762,87.187,381.962Z" fill="#fff"/>
      </g>
      <g id="Group_65" data-name="Group 65" opacity="0.3">
        <path id="Path_163" data-name="Path 163" d="M91.323,396.26a1.539,1.539,0,1,1-.929-1.969A1.541,1.541,0,0,1,91.323,396.26Z" fill="#fff"/>
      </g>
      <g id="Group_66" data-name="Group 66" opacity="0.15">
        <path id="Path_164" data-name="Path 164" d="M73.911,373.38c-.431,1.2-3.181,3.636-4.382,3.206s-.4-3.566.035-4.766a2.309,2.309,0,0,1,4.347,1.56Z" fill="#fff"/>
      </g>
    </g>
    <g id="Group_82" data-name="Group 82" opacity="0.5">
      <path id="Path_165" data-name="Path 165" d="M329.139,608.818l5.9,2.117a4.618,4.618,0,1,1-1.441,4.011l-5.9-2.117Z" fill="#6c63ff"/>
      <path id="Path_166" data-name="Path 166" d="M329.139,608.818l5.9,2.117a4.618,4.618,0,1,1-1.441,4.011l-5.9-2.117Z" fill="none" stroke="#000" stroke-width="0.5"/>
      <g id="Group_68" data-name="Group 68" opacity="0.31">
        <path id="Path_167" data-name="Path 167" d="M340.147,616.124a1.026,1.026,0,1,1-.619-1.313A1.027,1.027,0,0,1,340.147,616.124Z" fill="#fff"/>
      </g>
      <path id="Path_168" data-name="Path 168" d="M277.943,590.44l-5.9-2.117a4.619,4.619,0,1,0-1.44,4.011l5.9,2.118Z" fill="#6c63ff"/>
      <path id="Path_169" data-name="Path 169" d="M277.943,590.44l-5.9-2.117a4.619,4.619,0,1,0-1.44,4.011l5.9,2.118Z" fill="none" stroke="#000" stroke-width="0.5"/>
      <g id="Group_69" data-name="Group 69" opacity="0.31">
        <path id="Path_170" data-name="Path 170" d="M266.734,589.771a1.026,1.026,0,1,1-.62-1.313A1.028,1.028,0,0,1,266.734,589.771Z" fill="#fff"/>
      </g>
      <g id="Group_70" data-name="Group 70" opacity="0.18">
        <path id="Path_171" data-name="Path 171" d="M319.036,638.037a1.656,1.656,0,1,1,.417,2.3A1.657,1.657,0,0,1,319.036,638.037Z" fill="#fff"/>
      </g>
      <g id="Group_71" data-name="Group 71" opacity="0.18">
        <path id="Path_172" data-name="Path 172" d="M341.96,583.646a1.656,1.656,0,1,1-1.513-1.788A1.655,1.655,0,0,1,341.96,583.646Z" fill="#fff"/>
      </g>
      <path id="Path_173" data-name="Path 173" d="M295.638,627.953l-2.117,5.9a4.618,4.618,0,1,1-4.012-1.44l2.117-5.9Z" fill="#6c63ff"/>
      <path id="Path_174" data-name="Path 174" d="M295.638,627.953l-2.117,5.9a4.618,4.618,0,1,1-4.012-1.44l2.117-5.9Z" fill="none" stroke="#000" stroke-width="0.5"/>
      <g id="Group_72" data-name="Group 72" opacity="0.31">
        <path id="Path_175" data-name="Path 175" d="M288.332,638.961a1.026,1.026,0,1,1,1.313-.62A1.027,1.027,0,0,1,288.332,638.961Z" fill="#fff"/>
      </g>
      <path id="Path_176" data-name="Path 176" d="M314.016,576.756l2.117-5.9a4.618,4.618,0,1,0-4.012-1.44l-2.117,5.9Z" fill="#6c63ff"/>
      <path id="Path_177" data-name="Path 177" d="M314.016,576.756l2.117-5.9a4.618,4.618,0,1,0-4.012-1.44l-2.117,5.9Z" fill="none" stroke="#000" stroke-width="0.5"/>
      <g id="Group_73" data-name="Group 73" opacity="0.31">
        <path id="Path_178" data-name="Path 178" d="M314.685,565.547a1.026,1.026,0,1,1,1.313-.619A1.026,1.026,0,0,1,314.685,565.547Z" fill="#fff"/>
      </g>
      <path id="Path_179" data-name="Path 179" d="M279.132,615.165l-5.668,2.674a4.618,4.618,0,1,1-1.818-3.855l5.668-2.674Z" fill="#6c63ff"/>
      <path id="Path_180" data-name="Path 180" d="M279.132,615.165l-5.668,2.674a4.618,4.618,0,1,1-1.818-3.855l5.668-2.674Z" fill="none" stroke="#000" stroke-width="0.5"/>
      <g id="Group_74" data-name="Group 74" opacity="0.31">
        <path id="Path_181" data-name="Path 181" d="M266.183,617.783a1.026,1.026,0,1,1,1.366.49A1.026,1.026,0,0,1,266.183,617.783Z" fill="#fff"/>
      </g>
      <path id="Path_182" data-name="Path 182" d="M328.329,591.959,334,589.285a4.619,4.619,0,1,0-1.818-3.855L326.51,588.1Z" fill="#6c63ff"/>
      <path id="Path_183" data-name="Path 183" d="M328.329,591.959,334,589.285a4.619,4.619,0,1,0-1.818-3.855L326.51,588.1Z" fill="none" stroke="#000" stroke-width="0.5"/>
      <g id="Group_75" data-name="Group 75" opacity="0.31">
        <path id="Path_184" data-name="Path 184" d="M336.728,584.506a1.026,1.026,0,1,1,1.366.49A1.027,1.027,0,0,1,336.728,584.506Z" fill="#fff"/>
      </g>
      <path id="Path_185" data-name="Path 185" d="M316.352,625.324l2.673,5.667a4.619,4.619,0,1,1-3.855,1.819l-2.673-5.668Z" fill="#6c63ff"/>
      <path id="Path_186" data-name="Path 186" d="M316.352,625.324l2.673,5.667a4.619,4.619,0,1,1-3.855,1.819l-2.673-5.668Z" fill="none" stroke="#000" stroke-width="0.5"/>
      <g id="Group_76" data-name="Group 76" opacity="0.31">
        <path id="Path_187" data-name="Path 187" d="M318.969,638.273a1.026,1.026,0,1,1,.491-1.366A1.027,1.027,0,0,1,318.969,638.273Z" fill="#fff"/>
      </g>
      <path id="Path_188" data-name="Path 188" d="M293.145,576.127l-2.673-5.668a4.619,4.619,0,1,0-3.855,1.819l2.674,5.667Z" fill="#6c63ff"/>
      <path id="Path_189" data-name="Path 189" d="M293.145,576.127l-2.673-5.668a4.619,4.619,0,1,0-3.855,1.819l2.674,5.667Z" fill="none" stroke="#000" stroke-width="0.5"/>
      <g id="Group_77" data-name="Group 77" opacity="0.31">
        <path id="Path_190" data-name="Path 190" d="M285.692,567.728a1.026,1.026,0,1,1,.491-1.366A1.027,1.027,0,0,1,285.692,567.728Z" fill="#fff"/>
      </g>
      <path id="Path_191" data-name="Path 191" d="M329.7,611.827A28.995,28.995,0,1,1,312.289,574.5,29.138,29.138,0,0,1,329.7,611.827Z" fill="#6c63ff"/>
      <path id="Path_192" data-name="Path 192" d="M329.7,611.827A28.995,28.995,0,1,1,312.289,574.5,29.138,29.138,0,0,1,329.7,611.827Z" fill="none" stroke="#000" stroke-width="0.5"/>
      <g id="Group_78" data-name="Group 78" opacity="0.3">
        <path id="Path_193" data-name="Path 193" d="M315.367,622.222c-.622,1.734-1.839,2.884-3.573,2.261a3.335,3.335,0,1,1,2.254-6.278C315.782,618.827,315.99,620.488,315.367,622.222Z" fill="#fff"/>
      </g>
      <g id="Group_79" data-name="Group 79" opacity="0.17">
        <path id="Path_194" data-name="Path 194" d="M321.187,589.962c-.431,1.2-3.127,2.961-4.327,2.53s-2.843-4.184-2.413-5.384,3.336-1.931,4.536-1.5S321.618,588.762,321.187,589.962Z" fill="#fff"/>
      </g>
      <g id="Group_80" data-name="Group 80" opacity="0.3">
        <path id="Path_195" data-name="Path 195" d="M325.323,604.26a1.539,1.539,0,1,1-.929-1.969A1.54,1.54,0,0,1,325.323,604.26Z" fill="#fff"/>
      </g>
      <g id="Group_81" data-name="Group 81" opacity="0.15">
        <path id="Path_196" data-name="Path 196" d="M307.911,581.38c-.431,1.2-3.182,3.637-4.382,3.206s-.4-3.566.035-4.766a2.309,2.309,0,0,1,4.347,1.56Z" fill="#fff"/>
      </g>
    </g>
    <g id="Group_97" data-name="Group 97" opacity="0.5">
      <path id="Path_197" data-name="Path 197" d="M1224.14,554.818l5.9,2.117a4.547,4.547,0,0,1,4.65-.973,4.619,4.619,0,0,1-3.12,8.694,4.54,4.54,0,0,1-2.97-3.71l-5.9-2.117Z" fill="#6c63ff"/>
      <path id="Path_198" data-name="Path 198" d="M1224.14,554.818l5.9,2.117a4.547,4.547,0,0,1,4.65-.973,4.619,4.619,0,0,1-3.12,8.694,4.54,4.54,0,0,1-2.97-3.71l-5.9-2.117Z" fill="none" stroke="#000" stroke-width="0.5"/>
      <g id="Group_83" data-name="Group 83" opacity="0.31">
        <path id="Path_199" data-name="Path 199" d="M1235.15,562.124a1.032,1.032,0,0,1-1.32.619,1.027,1.027,0,0,1,.7-1.932A1.031,1.031,0,0,1,1235.15,562.124Z" fill="#fff"/>
      </g>
      <path id="Path_200" data-name="Path 200" d="M1172.94,536.44l-5.9-2.117a4.54,4.54,0,0,0-2.97-3.71,4.619,4.619,0,1,0,1.53,7.721l5.9,2.118Z" fill="#6c63ff"/>
      <path id="Path_201" data-name="Path 201" d="M1172.94,536.44l-5.9-2.117a4.54,4.54,0,0,0-2.97-3.71,4.619,4.619,0,1,0,1.53,7.721l5.9,2.118Z" fill="none" stroke="#000" stroke-width="0.5"/>
      <g id="Group_84" data-name="Group 84" opacity="0.31">
        <path id="Path_202" data-name="Path 202" d="M1161.73,535.771a1.025,1.025,0,1,1-.62-1.313A1.025,1.025,0,0,1,1161.73,535.771Z" fill="#fff"/>
      </g>
      <g id="Group_85" data-name="Group 85" opacity="0.18">
        <path id="Path_203" data-name="Path 203" d="M1214.04,584.037a1.656,1.656,0,1,1,.41,2.3A1.651,1.651,0,0,1,1214.04,584.037Z" fill="#fff"/>
      </g>
      <g id="Group_86" data-name="Group 86" opacity="0.18">
        <path id="Path_204" data-name="Path 204" d="M1236.96,529.646a1.656,1.656,0,1,1-1.51-1.788A1.662,1.662,0,0,1,1236.96,529.646Z" fill="#fff"/>
      </g>
      <path id="Path_205" data-name="Path 205" d="M1190.64,573.953l-2.12,5.9a4.533,4.533,0,0,1,.97,4.652,4.617,4.617,0,1,1-4.98-6.092l2.12-5.9Z" fill="#6c63ff"/>
      <path id="Path_206" data-name="Path 206" d="M1190.64,573.953l-2.12,5.9a4.533,4.533,0,0,1,.97,4.652,4.617,4.617,0,1,1-4.98-6.092l2.12-5.9Z" fill="none" stroke="#000" stroke-width="0.5"/>
      <g id="Group_87" data-name="Group 87" opacity="0.31">
        <path id="Path_207" data-name="Path 207" d="M1183.33,584.961a1.027,1.027,0,1,1,.7-1.932,1.027,1.027,0,0,1-.7,1.932Z" fill="#fff"/>
      </g>
      <path id="Path_208" data-name="Path 208" d="M1209.02,522.756l2.11-5.9a4.616,4.616,0,1,0-4.01-1.44l-2.12,5.9Z" fill="#6c63ff"/>
      <path id="Path_209" data-name="Path 209" d="M1209.02,522.756l2.11-5.9a4.616,4.616,0,1,0-4.01-1.44l-2.12,5.9Z" fill="none" stroke="#000" stroke-width="0.5"/>
      <g id="Group_88" data-name="Group 88" opacity="0.31">
        <path id="Path_210" data-name="Path 210" d="M1209.68,511.547a1.027,1.027,0,0,1,.7-1.932,1.027,1.027,0,1,1-.7,1.932Z" fill="#fff"/>
      </g>
      <path id="Path_211" data-name="Path 211" d="M1174.13,561.165l-5.67,2.674a4.526,4.526,0,0,1-2.6,3.977,4.618,4.618,0,1,1,.79-7.832l5.66-2.674Z" fill="#6c63ff"/>
      <path id="Path_212" data-name="Path 212" d="M1174.13,561.165l-5.67,2.674a4.526,4.526,0,0,1-2.6,3.977,4.618,4.618,0,1,1,.79-7.832l5.66-2.674Z" fill="none" stroke="#000" stroke-width="0.5"/>
      <g id="Group_89" data-name="Group 89" opacity="0.31">
        <path id="Path_213" data-name="Path 213" d="M1161.18,563.783a1.028,1.028,0,1,1,1.37.49A1.029,1.029,0,0,1,1161.18,563.783Z" fill="#fff"/>
      </g>
      <path id="Path_214" data-name="Path 214" d="M1223.33,537.959l5.67-2.674a4.618,4.618,0,1,0-1.82-3.855l-5.67,2.674Z" fill="#6c63ff"/>
      <path id="Path_215" data-name="Path 215" d="M1223.33,537.959l5.67-2.674a4.618,4.618,0,1,0-1.82-3.855l-5.67,2.674Z" fill="none" stroke="#000" stroke-width="0.5"/>
      <g id="Group_90" data-name="Group 90" opacity="0.31">
        <path id="Path_216" data-name="Path 216" d="M1231.73,530.506a1.03,1.03,0,0,1,.49-1.366,1.025,1.025,0,1,1-.49,1.366Z" fill="#fff"/>
      </g>
      <path id="Path_217" data-name="Path 217" d="M1211.35,571.324l2.68,5.667a4.618,4.618,0,1,1-3.86,1.819l-2.67-5.668Z" fill="#6c63ff"/>
      <path id="Path_218" data-name="Path 218" d="M1211.35,571.324l2.68,5.667a4.618,4.618,0,1,1-3.86,1.819l-2.67-5.668Z" fill="none" stroke="#000" stroke-width="0.5"/>
      <g id="Group_91" data-name="Group 91" opacity="0.31">
        <path id="Path_219" data-name="Path 219" d="M1213.97,584.273a1.027,1.027,0,1,1,.49-1.366A1.031,1.031,0,0,1,1213.97,584.273Z" fill="#fff"/>
      </g>
      <path id="Path_220" data-name="Path 220" d="M1188.15,522.127l-2.68-5.668a4.616,4.616,0,1,0-3.85,1.819l2.67,5.667Z" fill="#6c63ff"/>
      <path id="Path_221" data-name="Path 221" d="M1188.15,522.127l-2.68-5.668a4.616,4.616,0,1,0-3.85,1.819l2.67,5.667Z" fill="none" stroke="#000" stroke-width="0.5"/>
      <g id="Group_92" data-name="Group 92" opacity="0.31">
        <path id="Path_222" data-name="Path 222" d="M1180.69,513.728a1.025,1.025,0,1,1,.49-1.366A1.02,1.02,0,0,1,1180.69,513.728Z" fill="#fff"/>
      </g>
      <path id="Path_223" data-name="Path 223" d="M1224.69,557.827a28.991,28.991,0,1,1-17.4-37.326A29.135,29.135,0,0,1,1224.69,557.827Z" fill="#6c63ff"/>
      <path id="Path_224" data-name="Path 224" d="M1224.69,557.827a28.991,28.991,0,1,1-17.4-37.326A29.135,29.135,0,0,1,1224.69,557.827Z" fill="none" stroke="#000" stroke-width="0.5"/>
      <g id="Group_93" data-name="Group 93" opacity="0.3">
        <path id="Path_225" data-name="Path 225" d="M1210.37,568.222c-.62,1.734-1.84,2.884-3.58,2.261a3.336,3.336,0,0,1,2.26-6.278C1210.78,564.827,1210.99,566.488,1210.37,568.222Z" fill="#fff"/>
      </g>
      <g id="Group_94" data-name="Group 94" opacity="0.17">
        <path id="Path_226" data-name="Path 226" d="M1216.19,535.962c-.43,1.2-3.13,2.961-4.33,2.53s-2.84-4.184-2.41-5.384,3.33-1.931,4.53-1.5S1216.62,534.762,1216.19,535.962Z" fill="#fff"/>
      </g>
      <g id="Group_95" data-name="Group 95" opacity="0.3">
        <path id="Path_227" data-name="Path 227" d="M1220.32,550.26a1.536,1.536,0,1,1-.93-1.969A1.538,1.538,0,0,1,1220.32,550.26Z" fill="#fff"/>
      </g>
      <g id="Group_96" data-name="Group 96" opacity="0.15">
        <path id="Path_228" data-name="Path 228" d="M1202.91,527.38c-.43,1.2-3.18,3.637-4.38,3.206s-.4-3.566.03-4.766a2.311,2.311,0,0,1,4.35,1.56Z" fill="#fff"/>
      </g>
    </g>
    <g id="Group_112" data-name="Group 112" opacity="0.5">
      <path id="Path_229" data-name="Path 229" d="M1169.14,273.818l5.9,2.117a4.547,4.547,0,0,1,4.65-.973,4.619,4.619,0,0,1-3.12,8.694,4.54,4.54,0,0,1-2.97-3.71l-5.9-2.117Z" fill="#6c63ff"/>
      <path id="Path_230" data-name="Path 230" d="M1169.14,273.818l5.9,2.117a4.547,4.547,0,0,1,4.65-.973,4.619,4.619,0,0,1-3.12,8.694,4.54,4.54,0,0,1-2.97-3.71l-5.9-2.117Z" fill="none" stroke="#000" stroke-width="0.5"/>
      <g id="Group_98" data-name="Group 98" opacity="0.31">
        <path id="Path_231" data-name="Path 231" d="M1180.15,281.124a1.032,1.032,0,0,1-1.32.619,1.027,1.027,0,0,1,.7-1.932A1.031,1.031,0,0,1,1180.15,281.124Z" fill="#fff"/>
      </g>
      <path id="Path_232" data-name="Path 232" d="M1117.94,255.44l-5.89-2.117a4.629,4.629,0,1,0-1.45,4.011l5.9,2.118Z" fill="#6c63ff"/>
      <path id="Path_233" data-name="Path 233" d="M1117.94,255.44l-5.89-2.117a4.629,4.629,0,1,0-1.45,4.011l5.9,2.118Z" fill="none" stroke="#000" stroke-width="0.5"/>
      <g id="Group_99" data-name="Group 99" opacity="0.31">
        <path id="Path_234" data-name="Path 234" d="M1106.73,254.771a1.025,1.025,0,1,1-.62-1.313A1.025,1.025,0,0,1,1106.73,254.771Z" fill="#fff"/>
      </g>
      <g id="Group_100" data-name="Group 100" opacity="0.18">
        <path id="Path_235" data-name="Path 235" d="M1159.04,303.037a1.656,1.656,0,1,1,.41,2.305A1.651,1.651,0,0,1,1159.04,303.037Z" fill="#fff"/>
      </g>
      <g id="Group_101" data-name="Group 101" opacity="0.18">
        <path id="Path_236" data-name="Path 236" d="M1181.96,248.646a1.656,1.656,0,1,1-1.51-1.788A1.662,1.662,0,0,1,1181.96,248.646Z" fill="#fff"/>
      </g>
      <path id="Path_237" data-name="Path 237" d="M1135.64,292.953l-2.12,5.9a4.533,4.533,0,0,1,.97,4.652,4.617,4.617,0,1,1-4.98-6.092l2.12-5.9Z" fill="#6c63ff"/>
      <path id="Path_238" data-name="Path 238" d="M1135.64,292.953l-2.12,5.9a4.533,4.533,0,0,1,.97,4.652,4.617,4.617,0,1,1-4.98-6.092l2.12-5.9Z" fill="none" stroke="#000" stroke-width="0.5"/>
      <g id="Group_102" data-name="Group 102" opacity="0.31">
        <path id="Path_239" data-name="Path 239" d="M1128.33,303.961a1.027,1.027,0,1,1,.7-1.932,1.027,1.027,0,0,1-.7,1.932Z" fill="#fff"/>
      </g>
      <path id="Path_240" data-name="Path 240" d="M1154.02,241.756l2.11-5.9a4.616,4.616,0,1,0-4.01-1.44l-2.12,5.9Z" fill="#6c63ff"/>
      <path id="Path_241" data-name="Path 241" d="M1154.02,241.756l2.11-5.9a4.616,4.616,0,1,0-4.01-1.44l-2.12,5.9Z" fill="none" stroke="#000" stroke-width="0.5"/>
      <g id="Group_103" data-name="Group 103" opacity="0.31">
        <path id="Path_242" data-name="Path 242" d="M1154.68,230.547a1.027,1.027,0,0,1,.7-1.932,1.027,1.027,0,1,1-.7,1.932Z" fill="#fff"/>
      </g>
      <path id="Path_243" data-name="Path 243" d="M1119.13,280.165l-5.67,2.674a4.526,4.526,0,0,1-2.6,3.977,4.618,4.618,0,1,1,.79-7.832l5.66-2.674Z" fill="#6c63ff"/>
      <path id="Path_244" data-name="Path 244" d="M1119.13,280.165l-5.67,2.674a4.526,4.526,0,0,1-2.6,3.977,4.618,4.618,0,1,1,.79-7.832l5.66-2.674Z" fill="none" stroke="#000" stroke-width="0.5"/>
      <g id="Group_104" data-name="Group 104" opacity="0.31">
        <path id="Path_245" data-name="Path 245" d="M1106.18,282.783a1.028,1.028,0,1,1,1.37.49A1.029,1.029,0,0,1,1106.18,282.783Z" fill="#fff"/>
      </g>
      <path id="Path_246" data-name="Path 246" d="M1168.33,256.959l5.67-2.674a4.618,4.618,0,1,0-1.82-3.855l-5.67,2.674Z" fill="#6c63ff"/>
      <path id="Path_247" data-name="Path 247" d="M1168.33,256.959l5.67-2.674a4.618,4.618,0,1,0-1.82-3.855l-5.67,2.674Z" fill="none" stroke="#000" stroke-width="0.5"/>
      <g id="Group_105" data-name="Group 105" opacity="0.31">
        <path id="Path_248" data-name="Path 248" d="M1176.73,249.506a1.03,1.03,0,0,1,.49-1.366,1.025,1.025,0,1,1-.49,1.366Z" fill="#fff"/>
      </g>
      <path id="Path_249" data-name="Path 249" d="M1156.35,290.324l2.68,5.667a4.618,4.618,0,1,1-3.86,1.819l-2.67-5.668Z" fill="#6c63ff"/>
      <path id="Path_250" data-name="Path 250" d="M1156.35,290.324l2.68,5.667a4.618,4.618,0,1,1-3.86,1.819l-2.67-5.668Z" fill="none" stroke="#000" stroke-width="0.5"/>
      <g id="Group_106" data-name="Group 106" opacity="0.31">
        <path id="Path_251" data-name="Path 251" d="M1158.97,303.273a1.027,1.027,0,1,1,.49-1.366A1.031,1.031,0,0,1,1158.97,303.273Z" fill="#fff"/>
      </g>
      <path id="Path_252" data-name="Path 252" d="M1133.15,241.127l-2.68-5.668a4.616,4.616,0,1,0-3.85,1.819l2.67,5.667Z" fill="#6c63ff"/>
      <path id="Path_253" data-name="Path 253" d="M1133.15,241.127l-2.68-5.668a4.616,4.616,0,1,0-3.85,1.819l2.67,5.667Z" fill="none" stroke="#000" stroke-width="0.5"/>
      <g id="Group_107" data-name="Group 107" opacity="0.31">
        <path id="Path_254" data-name="Path 254" d="M1125.69,232.728a1.025,1.025,0,1,1,.49-1.366A1.03,1.03,0,0,1,1125.69,232.728Z" fill="#fff"/>
      </g>
      <path id="Path_255" data-name="Path 255" d="M1169.69,276.827a28.991,28.991,0,1,1-17.4-37.326A29.135,29.135,0,0,1,1169.69,276.827Z" fill="#6c63ff"/>
      <path id="Path_256" data-name="Path 256" d="M1169.69,276.827a28.991,28.991,0,1,1-17.4-37.326A29.135,29.135,0,0,1,1169.69,276.827Z" fill="none" stroke="#000" stroke-width="0.5"/>
      <g id="Group_108" data-name="Group 108" opacity="0.3">
        <path id="Path_257" data-name="Path 257" d="M1155.37,287.222c-.62,1.734-1.84,2.884-3.58,2.261a3.336,3.336,0,0,1,2.26-6.278C1155.78,283.827,1155.99,285.488,1155.37,287.222Z" fill="#fff"/>
      </g>
      <g id="Group_109" data-name="Group 109" opacity="0.17">
        <path id="Path_258" data-name="Path 258" d="M1161.19,254.962c-.43,1.2-3.13,2.961-4.33,2.53s-2.84-4.184-2.41-5.384,3.33-1.931,4.53-1.5S1161.62,253.762,1161.19,254.962Z" fill="#fff"/>
      </g>
      <g id="Group_110" data-name="Group 110" opacity="0.3">
        <path id="Path_259" data-name="Path 259" d="M1165.32,269.26a1.536,1.536,0,1,1-.93-1.969A1.538,1.538,0,0,1,1165.32,269.26Z" fill="#fff"/>
      </g>
      <g id="Group_111" data-name="Group 111" opacity="0.15">
        <path id="Path_260" data-name="Path 260" d="M1147.91,246.38c-.43,1.2-3.18,3.637-4.38,3.206s-.4-3.566.03-4.766a2.311,2.311,0,0,1,4.35,1.56Z" fill="#fff"/>
      </g>
    </g>
    <g id="Group_127" data-name="Group 127" opacity="0.5">
      <path id="Path_261" data-name="Path 261" d="M926.139,112.818l5.9,2.117a4.618,4.618,0,1,1-1.441,4.011l-5.9-2.117Z" fill="#6c63ff"/>
      <path id="Path_262" data-name="Path 262" d="M926.139,112.818l5.9,2.117a4.618,4.618,0,1,1-1.441,4.011l-5.9-2.117Z" fill="none" stroke="#000" stroke-width="0.5"/>
      <g id="Group_113" data-name="Group 113" opacity="0.31">
        <path id="Path_263" data-name="Path 263" d="M937.147,120.124a1.026,1.026,0,1,1-.619-1.313A1.027,1.027,0,0,1,937.147,120.124Z" fill="#fff"/>
      </g>
      <path id="Path_264" data-name="Path 264" d="M874.943,94.44l-5.9-2.117a4.619,4.619,0,1,0-1.44,4.012l5.9,2.117Z" fill="#6c63ff"/>
      <path id="Path_265" data-name="Path 265" d="M874.943,94.44l-5.9-2.117a4.619,4.619,0,1,0-1.44,4.012l5.9,2.117Z" fill="none" stroke="#000" stroke-width="0.5"/>
      <g id="Group_114" data-name="Group 114" opacity="0.31">
        <path id="Path_266" data-name="Path 266" d="M863.734,93.771a1.026,1.026,0,1,1-.62-1.313A1.027,1.027,0,0,1,863.734,93.771Z" fill="#fff"/>
      </g>
      <g id="Group_115" data-name="Group 115" opacity="0.18">
        <path id="Path_267" data-name="Path 267" d="M916.036,142.037a1.656,1.656,0,1,1,.417,2.3A1.657,1.657,0,0,1,916.036,142.037Z" fill="#fff"/>
      </g>
      <g id="Group_116" data-name="Group 116" opacity="0.18">
        <path id="Path_268" data-name="Path 268" d="M938.96,87.646a1.656,1.656,0,1,1-1.513-1.787A1.656,1.656,0,0,1,938.96,87.646Z" fill="#fff"/>
      </g>
      <path id="Path_269" data-name="Path 269" d="M892.638,131.953l-2.117,5.9a4.618,4.618,0,1,1-4.012-1.44l2.117-5.9Z" fill="#6c63ff"/>
      <path id="Path_270" data-name="Path 270" d="M892.638,131.953l-2.117,5.9a4.618,4.618,0,1,1-4.012-1.44l2.117-5.9Z" fill="none" stroke="#000" stroke-width="0.5"/>
      <g id="Group_117" data-name="Group 117" opacity="0.31">
        <path id="Path_271" data-name="Path 271" d="M885.332,142.961a1.026,1.026,0,1,1,1.313-.62A1.027,1.027,0,0,1,885.332,142.961Z" fill="#fff"/>
      </g>
      <path id="Path_272" data-name="Path 272" d="M911.016,80.757l2.117-5.9a4.618,4.618,0,1,0-4.012-1.44L907,79.316Z" fill="#6c63ff"/>
      <path id="Path_273" data-name="Path 273" d="M911.016,80.757l2.117-5.9a4.618,4.618,0,1,0-4.012-1.44L907,79.316Z" fill="none" stroke="#000" stroke-width="0.5"/>
      <g id="Group_118" data-name="Group 118" opacity="0.31">
        <path id="Path_274" data-name="Path 274" d="M911.685,69.547A1.026,1.026,0,1,1,913,68.928,1.026,1.026,0,0,1,911.685,69.547Z" fill="#fff"/>
      </g>
      <path id="Path_275" data-name="Path 275" d="M876.132,119.165l-5.668,2.674a4.618,4.618,0,1,1-1.818-3.855l5.668-2.674Z" fill="#6c63ff"/>
      <path id="Path_276" data-name="Path 276" d="M876.132,119.165l-5.668,2.674a4.618,4.618,0,1,1-1.818-3.855l5.668-2.674Z" fill="none" stroke="#000" stroke-width="0.5"/>
      <g id="Group_119" data-name="Group 119" opacity="0.31">
        <path id="Path_277" data-name="Path 277" d="M863.183,121.783a1.026,1.026,0,1,1,1.366.49A1.026,1.026,0,0,1,863.183,121.783Z" fill="#fff"/>
      </g>
      <path id="Path_278" data-name="Path 278" d="M925.329,95.959,931,93.285a4.619,4.619,0,1,0-1.818-3.855L923.51,92.1Z" fill="#6c63ff"/>
      <path id="Path_279" data-name="Path 279" d="M925.329,95.959,931,93.285a4.619,4.619,0,1,0-1.818-3.855L923.51,92.1Z" fill="none" stroke="#000" stroke-width="0.5"/>
      <g id="Group_120" data-name="Group 120" opacity="0.31">
        <path id="Path_280" data-name="Path 280" d="M933.728,88.506a1.026,1.026,0,1,1,1.366.49A1.027,1.027,0,0,1,933.728,88.506Z" fill="#fff"/>
      </g>
      <path id="Path_281" data-name="Path 281" d="M913.352,129.324l2.673,5.667a4.619,4.619,0,1,1-3.855,1.819l-2.673-5.668Z" fill="#6c63ff"/>
      <path id="Path_282" data-name="Path 282" d="M913.352,129.324l2.673,5.667a4.619,4.619,0,1,1-3.855,1.819l-2.673-5.668Z" fill="none" stroke="#000" stroke-width="0.5"/>
      <g id="Group_121" data-name="Group 121" opacity="0.31">
        <path id="Path_283" data-name="Path 283" d="M915.969,142.273a1.026,1.026,0,1,1,.491-1.366A1.027,1.027,0,0,1,915.969,142.273Z" fill="#fff"/>
      </g>
      <path id="Path_284" data-name="Path 284" d="M890.145,80.127l-2.673-5.668a4.619,4.619,0,1,0-3.855,1.818l2.674,5.668Z" fill="#6c63ff"/>
      <path id="Path_285" data-name="Path 285" d="M890.145,80.127l-2.673-5.668a4.619,4.619,0,1,0-3.855,1.818l2.674,5.668Z" fill="none" stroke="#000" stroke-width="0.5"/>
      <g id="Group_122" data-name="Group 122" opacity="0.31">
        <path id="Path_286" data-name="Path 286" d="M882.692,71.728a1.026,1.026,0,1,1,.491-1.366A1.027,1.027,0,0,1,882.692,71.728Z" fill="#fff"/>
      </g>
      <path id="Path_287" data-name="Path 287" d="M926.7,115.827A28.995,28.995,0,1,1,909.289,78.5,29.138,29.138,0,0,1,926.7,115.827Z" fill="#6c63ff"/>
      <path id="Path_288" data-name="Path 288" d="M926.7,115.827A28.995,28.995,0,1,1,909.289,78.5,29.138,29.138,0,0,1,926.7,115.827Z" fill="none" stroke="#000" stroke-width="0.5"/>
      <g id="Group_123" data-name="Group 123" opacity="0.3">
        <path id="Path_289" data-name="Path 289" d="M912.367,126.222c-.622,1.734-1.839,2.884-3.573,2.261a3.335,3.335,0,1,1,2.254-6.278C912.782,122.827,912.99,124.488,912.367,126.222Z" fill="#fff"/>
      </g>
      <g id="Group_124" data-name="Group 124" opacity="0.17">
        <path id="Path_290" data-name="Path 290" d="M918.187,93.962c-.431,1.2-3.127,2.961-4.327,2.53s-2.843-4.184-2.413-5.384,3.336-1.931,4.536-1.5S918.618,92.762,918.187,93.962Z" fill="#fff"/>
      </g>
      <g id="Group_125" data-name="Group 125" opacity="0.3">
        <path id="Path_291" data-name="Path 291" d="M922.323,108.26a1.539,1.539,0,1,1-.929-1.969A1.54,1.54,0,0,1,922.323,108.26Z" fill="#fff"/>
      </g>
      <g id="Group_126" data-name="Group 126" opacity="0.15">
        <path id="Path_292" data-name="Path 292" d="M904.911,85.38c-.431,1.2-3.182,3.636-4.382,3.205s-.4-3.566.035-4.766a2.309,2.309,0,1,1,4.347,1.56Z" fill="#fff"/>
      </g>
    </g>
    <g id="Group_142" data-name="Group 142" opacity="0.8">
      <path id="Path_293" data-name="Path 293" d="M334.635,78.47l10.251-7.211a9.238,9.238,0,1,1,4.9,6.972L339.54,85.443Z" fill="#6c63ff"/>
      <path id="Path_294" data-name="Path 294" d="M334.635,78.47l10.251-7.211a9.238,9.238,0,1,1,4.9,6.972L339.54,85.443Z" fill="none" stroke="#000" stroke-width="1"/>
      <g id="Group_128" data-name="Group 128" opacity="0.31">
        <path id="Path_295" data-name="Path 295" d="M359.254,68.872a2.053,2.053,0,1,1-2.86-.5A2.053,2.053,0,0,1,359.254,68.872Z" fill="#fff"/>
      </g>
      <path id="Path_296" data-name="Path 296" d="M245.658,141.067l-10.251,7.211a9.238,9.238,0,1,0,4.9,6.972l10.251-7.211Z" fill="#6c63ff"/>
      <path id="Path_297" data-name="Path 297" d="M245.658,141.067l-10.251,7.211a9.238,9.238,0,1,0,4.9,6.972l10.251-7.211Z" fill="none" stroke="#000" stroke-width="1"/>
      <g id="Group_129" data-name="Group 129" opacity="0.31">
        <path id="Path_298" data-name="Path 298" d="M231.664,158.633a2.052,2.052,0,1,1-2.86-.5A2.054,2.054,0,0,1,231.664,158.633Z" fill="#fff"/>
      </g>
      <g id="Group_130" data-name="Group 130" opacity="0.18">
        <path id="Path_299" data-name="Path 299" d="M370.8,128.622a3.313,3.313,0,1,1,4.25,1.971A3.314,3.314,0,0,1,370.8,128.622Z" fill="#fff"/>
      </g>
      <g id="Group_131" data-name="Group 131" opacity="0.18">
        <path id="Path_300" data-name="Path 300" d="M308.214,28.531a3.312,3.312,0,1,1-4.666.419A3.314,3.314,0,0,1,308.214,28.531Z" fill="#fff"/>
      </g>
      <path id="Path_301" data-name="Path 301" d="M327.383,155.291l7.212,10.25a9.238,9.238,0,1,1-6.972,4.9l-7.212-10.25Z" fill="#6c63ff"/>
      <path id="Path_302" data-name="Path 302" d="M327.383,155.291l7.212,10.25a9.238,9.238,0,1,1-6.972,4.9l-7.212-10.25Z" fill="none" stroke="#000" stroke-width="1"/>
      <g id="Group_132" data-name="Group 132" opacity="0.31">
        <path id="Path_303" data-name="Path 303" d="M336.982,179.909a2.053,2.053,0,1,1,.5-2.86A2.054,2.054,0,0,1,336.982,179.909Z" fill="#fff"/>
      </g>
      <path id="Path_304" data-name="Path 304" d="M264.787,66.314l-7.212-10.251a9.237,9.237,0,1,0-6.972,4.9l7.212,10.251Z" fill="#6c63ff"/>
      <path id="Path_305" data-name="Path 305" d="M264.787,66.314l-7.212-10.251a9.237,9.237,0,1,0-6.972,4.9l7.212,10.251Z" fill="none" stroke="#000" stroke-width="1"/>
      <g id="Group_133" data-name="Group 133" opacity="0.31">
        <path id="Path_306" data-name="Path 306" d="M247.221,52.32a2.053,2.053,0,1,1,.5-2.86A2.054,2.054,0,0,1,247.221,52.32Z" fill="#fff"/>
      </g>
      <path id="Path_307" data-name="Path 307" d="M287.471,167.575l-2.149,12.348a9.237,9.237,0,1,1-8.4-1.462l2.149-12.348Z" fill="#6c63ff"/>
      <path id="Path_308" data-name="Path 308" d="M287.471,167.575l-2.149,12.348a9.237,9.237,0,1,1-8.4-1.462l2.149-12.348Z" fill="none" stroke="#000" stroke-width="1"/>
      <g id="Group_134" data-name="Group 134" opacity="0.31">
        <path id="Path_309" data-name="Path 309" d="M276.851,191.77a2.053,2.053,0,1,1,2.374-1.671A2.055,2.055,0,0,1,276.851,191.77Z" fill="#fff"/>
      </g>
      <path id="Path_310" data-name="Path 310" d="M306.125,60.4l2.149-12.348a9.237,9.237,0,1,0-8.4-1.462l-2.149,12.348Z" fill="#6c63ff"/>
      <path id="Path_311" data-name="Path 311" d="M306.125,60.4l2.149-12.348a9.237,9.237,0,1,0-8.4-1.462l-2.149,12.348Z" fill="none" stroke="#000" stroke-width="1"/>
      <g id="Group_135" data-name="Group 135" opacity="0.31">
        <path id="Path_312" data-name="Path 312" d="M303.6,38.08a2.053,2.053,0,1,1,2.374-1.67A2.054,2.054,0,0,1,303.6,38.08Z" fill="#fff"/>
      </g>
      <path id="Path_313" data-name="Path 313" d="M346.92,118.383l12.347,2.149a9.238,9.238,0,1,1-1.461,8.4l-12.348-2.149Z" fill="#6c63ff"/>
      <path id="Path_314" data-name="Path 314" d="M346.92,118.383l12.347,2.149a9.238,9.238,0,1,1-1.461,8.4l-12.348-2.149Z" fill="none" stroke="#000" stroke-width="1"/>
      <g id="Group_136" data-name="Group 136" opacity="0.31">
        <path id="Path_315" data-name="Path 315" d="M371.114,129a2.052,2.052,0,1,1-1.67-2.374A2.053,2.053,0,0,1,371.114,129Z" fill="#fff"/>
      </g>
      <path id="Path_316" data-name="Path 316" d="M239.74,99.729l-12.347-2.149a9.238,9.238,0,1,0-1.462,8.4l12.348,2.149Z" fill="#6c63ff"/>
      <path id="Path_317" data-name="Path 317" d="M239.74,99.729l-12.347-2.149a9.238,9.238,0,1,0-1.462,8.4l12.348,2.149Z" fill="none" stroke="#000" stroke-width="1"/>
      <g id="Group_137" data-name="Group 137" opacity="0.31">
        <path id="Path_318" data-name="Path 318" d="M217.425,102.254a2.053,2.053,0,1,1-1.671-2.374A2.054,2.054,0,0,1,217.425,102.254Z" fill="#fff"/>
      </g>
      <path id="Path_319" data-name="Path 319" d="M340.2,81.024c18.577,26.407,12.409,62.8-13.766,81.211s-62.509,11.926-81.086-14.481-12.409-62.8,13.766-81.211S321.619,54.618,340.2,81.024Z" fill="#6c63ff"/>
      <path id="Path_320" data-name="Path 320" d="M340.2,81.024c18.577,26.407,12.409,62.8-13.766,81.211s-62.509,11.926-81.086-14.481-12.409-62.8,13.766-81.211S321.619,54.618,340.2,81.024Z" fill="none" stroke="#000" stroke-width="1"/>
      <g id="Group_138" data-name="Group 138" opacity="0.3">
        <path id="Path_321" data-name="Path 321" d="M340.713,116.424c2.12,3.013,2.6,6.327-.413,8.447a6.671,6.671,0,0,1-7.677-10.912C335.637,111.839,338.593,113.41,340.713,116.424Z" fill="#fff"/>
      </g>
      <g id="Group_139" data-name="Group 139" opacity="0.17">
        <path id="Path_322" data-name="Path 322" d="M294.641,69.781c1.467,2.086,1.244,8.522-.842,9.99s-10.115-.164-11.583-2.25.68-7.677,2.766-9.145S293.173,67.695,294.641,69.781Z" fill="#fff"/>
      </g>
      <g id="Group_140" data-name="Group 140" opacity="0.3">
        <path id="Path_323" data-name="Path 323" d="M322.788,79.468a3.079,3.079,0,1,1-4.29-.747A3.081,3.081,0,0,1,322.788,79.468Z" fill="#fff"/>
      </g>
      <g id="Group_141" data-name="Group 141" opacity="0.15">
        <path id="Path_324" data-name="Path 324" d="M265.325,81.621c1.467,2.086,2.287,9.388.2,10.856s-6.288-3.455-7.756-5.541a4.619,4.619,0,0,1,7.555-5.315Z" fill="#fff"/>
      </g>
    </g>
    <path id="Path_325" data-name="Path 325" d="M581.966,507.84a10.309,10.309,0,0,1-7.04,2.84c-6.92,0-9.6-4.84-9.64-9.48-.04-4.68,2.88-9.72,9.64-9.72a9.619,9.619,0,0,1,6.76,2.64l3.52-3.4a14.446,14.446,0,0,0-10.28-4.28c-10.12,0-14.88,7.44-14.84,14.76.04,7.28,4.44,14.44,14.84,14.44a14.758,14.758,0,0,0,10.64-4.16Zm19.736-21.4c-9.68,0-14.4,7.4-14.4,14.76s4.56,14.44,14.4,14.44,14.28-7.24,14.36-14.48C616.142,493.84,611.342,486.44,601.7,486.44Zm0,4.8c6.6,0,9.24,5.28,9.16,10-.08,4.6-2.56,9.56-9.16,9.56s-9.08-4.92-9.2-9.52C592.382,496.56,595.1,491.24,601.7,491.24ZM645.5,487h-5.92l-8.48,21.8-8.44-21.8h-5.92l11.64,28.12h5.48Zm8.518,28V487h-5.24v28Zm15.595-28h-11v28h11c9.8,0,14.12-7.16,14-14.24C683.492,493.84,679.212,487,669.612,487Zm-5.76,5h5.76c6.08,0,8.64,4.36,8.76,8.72.12,4.56-2.4,9.2-8.76,9.2h-5.76Zm22.685,12.2H701.3v-4.48h-14.76Zm17.28,10.8h13.32v-4.48h-3.88V487h-9.6v4.8h4.36v18.72h-4.2Zm34.465-8.84c0,3.04-3.2,4.76-6.36,4.72-3,0-6.28-1.24-6.28-3.72h-5.28c0,5.88,5.56,8.28,11.64,8.28,5.76,0,11.52-2.92,11.52-9.16V495.84c0-6.28-5.96-9.36-11.68-9.36-5.64,0-11.6,3.08-11.6,9.28,0,6.96,5.92,9.32,11.56,9.32,2.2,0,5.24-1.04,6.48-2.96v4.04Zm-6.44-14.96c3.44,0,6.4,1.48,6.44,4.56.04,3.12-2.96,4.72-6.48,4.72s-6.32-1.64-6.32-4.72S728.522,491.2,731.842,491.2ZM608.7,527h-5.92l-8.48,21.8-8.44-21.8h-5.92l11.64,28.12h5.48Zm24.118,22.8H617.1v-6.32h15.16v-4.92H617.1v-6.44h15.72V527H611.86v28h20.96Zm28.921,4.84-8.48-9.56c5.32-1.08,7.08-4.96,7.08-8.8,0-4.84-3.48-9.24-10.08-9.28-4.44,0-8.88-.04-13.32-.04V555h5.28v-9.36h5.08l8.16,9.36h6.28Zm-11.48-22.72c3.32,0,4.8,2.24,4.8,4.48s-1.44,4.48-4.8,4.48h-8.04v-8.96ZM669.174,555V527h-5.24v28Zm10.234,0V544.64h14.04v-4.88h-14.04v-7.64h14.84v-5.08h-20.12V555Zm24.4-28h-6.28v.24l10.76,16.2V555h5.28V543.44l11.16-16.2V527h-6.36l-7.44,11.56Z" fill="#fff"/>
  </g>
</svg>
